<?xml version="1.0" encoding="UTF-8"?>
<svg xmlns="http://www.w3.org/2000/svg" xmlns:xlink="http://www.w3.org/1999/xlink" width="167pt" height="42pt" viewBox="0 0 167 42" version="1.1">
<g id="surface1">
<path style=" stroke:none;fill-rule:evenodd;fill:rgb(60.784314%,16.862745%,17.254902%);fill-opacity:1;" d="M 158.347656 0.414062 C 158.242188 0.84375 158.183594 1.28125 158.167969 1.71875 C 158.179688 2.207031 158.335938 2.675781 158.613281 3.074219 C 159.074219 3.738281 159.609375 4.347656 160.207031 4.894531 C 161.746094 6.433594 162.8125 7.527344 163.398438 8.164062 C 163.921875 8.738281 164.394531 9.359375 164.8125 10.011719 C 165.582031 11.140625 166.011719 12.472656 166.035156 13.839844 C 166.039062 15.15625 165.640625 16.445312 164.898438 17.535156 C 163.398438 19.820312 160.699219 20.960938 156.804688 20.957031 L 150.25 20.957031 L 150.25 16.011719 L 156.054688 16.011719 C 156.980469 16.105469 157.90625 15.828125 158.632812 15.242188 C 159.023438 14.878906 159.253906 14.371094 159.265625 13.839844 C 159.238281 13.167969 158.988281 12.523438 158.554688 12.011719 C 158.078125 11.398438 156.894531 10.132812 154.984375 8.234375 C 153.792969 7.160156 152.773438 5.910156 151.960938 4.527344 C 151.613281 3.855469 151.421875 3.117188 151.398438 2.363281 C 151.445312 1.707031 151.550781 1.054688 151.714844 0.414062 Z M 128.691406 0.414062 L 136.511719 0.414062 C 139.375 0.277344 142.210938 1.039062 144.617188 2.601562 C 146.15625 3.652344 147.386719 5.101562 148.175781 6.789062 C 148.746094 8.03125 149.039062 9.378906 149.035156 10.746094 C 149.039062 13.324219 147.964844 15.785156 146.070312 17.535156 C 144.792969 18.824219 143.21875 19.773438 141.484375 20.304688 C 139.769531 20.777344 137.992188 21 136.214844 20.964844 L 128.671875 20.964844 L 128.671875 8.324219 L 135.175781 8.324219 L 135.175781 16.132812 C 136.15625 16.128906 137.128906 16.023438 138.082031 15.816406 C 138.792969 15.628906 139.464844 15.316406 140.058594 14.886719 C 140.742188 14.40625 141.296875 13.769531 141.679688 13.027344 C 142.066406 12.308594 142.269531 11.503906 142.273438 10.683594 C 142.269531 9.867188 142.058594 9.066406 141.660156 8.351562 C 141.265625 7.601562 140.691406 6.957031 139.992188 6.472656 C 139.394531 6.0625 138.722656 5.769531 138.015625 5.613281 C 137.070312 5.425781 136.109375 5.339844 135.148438 5.359375 L 128.664062 5.359375 Z M 114.152344 4.726562 C 112.597656 4.628906 111.085938 5.253906 110.058594 6.425781 C 109.140625 7.621094 108.683594 9.109375 108.765625 10.617188 C 108.6875 12.242188 109.226562 13.839844 110.269531 15.09375 C 111.296875 16.160156 112.742188 16.71875 114.222656 16.625 C 115.839844 16.746094 117.410156 16.054688 118.414062 14.777344 C 119.242188 13.605469 119.664062 12.191406 119.609375 10.753906 C 119.714844 9.089844 119.140625 7.453125 118.015625 6.21875 C 116.992188 5.207031 115.589844 4.667969 114.152344 4.726562 Z M 114.152344 0 C 116.1875 -0.0195312 118.207031 0.375 120.082031 1.167969 C 122.398438 2.074219 124.296875 3.800781 125.421875 6.019531 C 126.113281 7.507812 126.453125 9.132812 126.410156 10.773438 C 126.472656 13.675781 125.234375 16.457031 123.039062 18.355469 C 120.640625 20.398438 117.558594 21.460938 114.410156 21.320312 C 111.261719 21.441406 108.175781 20.429688 105.710938 18.464844 C 103.355469 16.59375 102.011719 13.730469 102.074219 10.726562 C 102.0625 8.832031 102.574219 6.976562 103.554688 5.359375 C 104.71875 3.460938 106.445312 1.976562 108.5 1.117188 C 110.285156 0.359375 112.210938 -0.0195312 114.152344 0 Z M 99.691406 0.40625 L 99.691406 5.347656 L 83.707031 5.347656 L 83.707031 0.40625 Z M 99.691406 8.3125 L 99.691406 13.253906 L 90.261719 13.253906 L 90.261719 16.03125 L 99.691406 16.03125 L 99.691406 20.976562 L 83.707031 20.976562 L 83.707031 8.324219 Z M 74.523438 0.40625 L 74.523438 16.011719 L 82.519531 16.011719 L 82.519531 20.957031 L 67.980469 20.957031 L 67.980469 0.414062 Z M 65.914062 0.40625 L 65.914062 5.347656 L 63.53125 5.347656 C 62.550781 5.324219 61.574219 5.445312 60.625 5.703125 C 59.859375 5.945312 59.152344 6.351562 58.550781 6.890625 C 57.429688 7.839844 56.789062 9.238281 56.800781 10.707031 C 56.796875 12.117188 57.410156 13.460938 58.480469 14.382812 C 59.109375 14.960938 59.859375 15.394531 60.675781 15.648438 C 61.695312 15.921875 62.753906 16.050781 63.808594 16.023438 L 65.914062 16.023438 L 65.914062 20.964844 L 62.730469 20.964844 C 60.300781 21.058594 57.882812 20.570312 55.675781 19.542969 C 53.46875 18.433594 51.738281 16.570312 50.792969 14.292969 C 50.3125 13.179688 50.0625 11.976562 50.058594 10.765625 C 50.066406 9.152344 50.484375 7.570312 51.277344 6.167969 C 51.886719 5.035156 52.710938 4.027344 53.699219 3.203125 C 55.199219 1.949219 57.007812 1.113281 58.9375 0.78125 C 60.265625 0.535156 61.617188 0.417969 62.96875 0.433594 Z M 42.816406 0.40625 L 50.21875 20.945312 L 27.917969 20.945312 L 32.710938 8.324219 L 38.644531 8.324219 L 36.113281 16.03125 L 42.203125 16.03125 L 35.746094 0.414062 Z M 17.113281 8.3125 L 17.113281 20.957031 L 11.183594 20.957031 L 11.183594 8.324219 Z M 1.230469 0.40625 L 17.964844 0.40625 C 19.480469 0.359375 21 0.472656 22.492188 0.75 C 23.445312 0.964844 24.332031 1.414062 25.070312 2.054688 C 25.75 2.644531 26.269531 3.394531 26.574219 4.242188 C 26.898438 5.324219 27.042969 6.453125 27.007812 7.582031 L 27.007812 20.945312 L 20.515625 20.945312 L 20.515625 7.789062 C 20.609375 7.078125 20.402344 6.359375 19.941406 5.8125 C 19.289062 5.402344 18.519531 5.226562 17.757812 5.308594 L 7.675781 5.308594 L 7.675781 20.914062 L 1.179688 20.914062 Z M 1.230469 0.40625 "/>
<path style=" stroke:none;fill-rule:nonzero;fill:rgb(21.960784%,20%,21.176471%);fill-opacity:1;" d="M 0.964844 25.679688 L 3.96875 25.679688 L 3.96875 42 L 0.964844 42 Z M 0.964844 25.679688 "/>
<path style=" stroke:none;fill-rule:nonzero;fill:rgb(21.960784%,20%,21.176471%);fill-opacity:1;" d="M 6.933594 25.679688 L 9.9375 25.679688 L 9.9375 42 L 6.933594 42 Z M 6.933594 25.679688 "/>
<path style=" stroke:none;fill-rule:nonzero;fill:rgb(21.960784%,20%,21.176471%);fill-opacity:1;" d="M 12.902344 25.679688 L 15.910156 25.679688 L 15.910156 42 L 12.902344 42 Z M 12.902344 25.679688 "/>
<path style=" stroke:none;fill-rule:nonzero;fill:rgb(21.960784%,20%,21.176471%);fill-opacity:1;" d="M 18.875 25.679688 L 21.878906 25.679688 L 21.878906 42 L 18.875 42 Z M 18.875 25.679688 "/>
<path style=" stroke:none;fill-rule:nonzero;fill:rgb(21.960784%,20%,21.176471%);fill-opacity:1;" d="M 24.84375 25.679688 L 27.847656 25.679688 L 27.847656 42 L 24.84375 42 Z M 24.84375 25.679688 "/>
<path style=" stroke:none;fill-rule:nonzero;fill:rgb(21.960784%,20%,21.176471%);fill-opacity:1;" d="M 30.816406 25.679688 L 33.820312 25.679688 L 33.820312 42 L 30.816406 42 Z M 30.816406 25.679688 "/>
<path style=" stroke:none;fill-rule:nonzero;fill:rgb(21.960784%,20%,21.176471%);fill-opacity:1;" d="M 36.785156 25.679688 L 39.789062 25.679688 L 39.789062 42 L 36.785156 42 Z M 36.785156 25.679688 "/>
<path style=" stroke:none;fill-rule:nonzero;fill:rgb(21.960784%,20%,21.176471%);fill-opacity:1;" d="M 42.753906 25.679688 L 45.761719 25.679688 L 45.761719 42 L 42.753906 42 Z M 42.753906 25.679688 "/>
<path style=" stroke:none;fill-rule:nonzero;fill:rgb(21.960784%,20%,21.176471%);fill-opacity:1;" d="M 48.726562 25.679688 L 51.730469 25.679688 L 51.730469 42 L 48.726562 42 Z M 48.726562 25.679688 "/>
<path style=" stroke:none;fill-rule:nonzero;fill:rgb(21.960784%,20%,21.176471%);fill-opacity:1;" d="M 54.695312 25.679688 L 57.699219 25.679688 L 57.699219 42 L 54.695312 42 Z M 54.695312 25.679688 "/>
<path style=" stroke:none;fill-rule:nonzero;fill:rgb(21.960784%,20%,21.176471%);fill-opacity:1;" d="M 60.667969 25.679688 L 63.671875 25.679688 L 63.671875 42 L 60.667969 42 Z M 60.667969 25.679688 "/>
<path style=" stroke:none;fill-rule:nonzero;fill:rgb(21.960784%,20%,21.176471%);fill-opacity:1;" d="M 66.636719 25.679688 L 69.640625 25.679688 L 69.640625 42 L 66.636719 42 Z M 66.636719 25.679688 "/>
<path style=" stroke:none;fill-rule:nonzero;fill:rgb(21.960784%,20%,21.176471%);fill-opacity:1;" d="M 72.605469 25.679688 L 75.613281 25.679688 L 75.613281 42 L 72.605469 42 Z M 72.605469 25.679688 "/>
<path style=" stroke:none;fill-rule:nonzero;fill:rgb(21.960784%,20%,21.176471%);fill-opacity:1;" d="M 78.578125 25.679688 L 81.582031 25.679688 L 81.582031 42 L 78.578125 42 Z M 78.578125 25.679688 "/>
<path style=" stroke:none;fill-rule:nonzero;fill:rgb(21.960784%,20%,21.176471%);fill-opacity:1;" d="M 84.546875 25.679688 L 87.550781 25.679688 L 87.550781 42 L 84.546875 42 Z M 84.546875 25.679688 "/>
<path style=" stroke:none;fill-rule:nonzero;fill:rgb(21.960784%,20%,21.176471%);fill-opacity:1;" d="M 90.519531 25.679688 L 93.523438 25.679688 L 93.523438 42 L 90.519531 42 Z M 90.519531 25.679688 "/>
<path style=" stroke:none;fill-rule:nonzero;fill:rgb(21.960784%,20%,21.176471%);fill-opacity:1;" d="M 96.488281 25.679688 L 99.492188 25.679688 L 99.492188 42 L 96.488281 42 Z M 96.488281 25.679688 "/>
<path style=" stroke:none;fill-rule:nonzero;fill:rgb(21.960784%,20%,21.176471%);fill-opacity:1;" d="M 102.457031 25.679688 L 105.464844 25.679688 L 105.464844 42 L 102.457031 42 Z M 102.457031 25.679688 "/>
<path style=" stroke:none;fill-rule:nonzero;fill:rgb(21.960784%,20%,21.176471%);fill-opacity:1;" d="M 108.429688 25.679688 L 111.433594 25.679688 L 111.433594 42 L 108.429688 42 Z M 108.429688 25.679688 "/>
<path style=" stroke:none;fill-rule:nonzero;fill:rgb(21.960784%,20%,21.176471%);fill-opacity:1;" d="M 114.398438 25.679688 L 117.40625 25.679688 L 117.40625 42 L 114.398438 42 Z M 114.398438 25.679688 "/>
<path style=" stroke:none;fill-rule:nonzero;fill:rgb(21.960784%,20%,21.176471%);fill-opacity:1;" d="M 120.371094 25.679688 L 123.375 25.679688 L 123.375 42 L 120.371094 42 Z M 120.371094 25.679688 "/>
<path style=" stroke:none;fill-rule:nonzero;fill:rgb(21.960784%,20%,21.176471%);fill-opacity:1;" d="M 126.339844 25.679688 L 129.34375 25.679688 L 129.34375 42 L 126.339844 42 Z M 126.339844 25.679688 "/>
<path style=" stroke:none;fill-rule:nonzero;fill:rgb(21.960784%,20%,21.176471%);fill-opacity:1;" d="M 132.308594 25.679688 L 135.316406 25.679688 L 135.316406 42 L 132.308594 42 Z M 132.308594 25.679688 "/>
<path style=" stroke:none;fill-rule:nonzero;fill:rgb(21.960784%,20%,21.176471%);fill-opacity:1;" d="M 138.28125 25.679688 L 141.285156 25.679688 L 141.285156 42 L 138.28125 42 Z M 138.28125 25.679688 "/>
<path style=" stroke:none;fill-rule:nonzero;fill:rgb(21.960784%,20%,21.176471%);fill-opacity:1;" d="M 144.25 25.679688 L 147.257812 25.679688 L 147.257812 42 L 144.25 42 Z M 144.25 25.679688 "/>
<path style=" stroke:none;fill-rule:nonzero;fill:rgb(21.960784%,20%,21.176471%);fill-opacity:1;" d="M 150.222656 25.679688 L 153.226562 25.679688 L 153.226562 42 L 150.222656 42 Z M 150.222656 25.679688 "/>
<path style=" stroke:none;fill-rule:nonzero;fill:rgb(21.960784%,20%,21.176471%);fill-opacity:1;" d="M 156.191406 25.679688 L 159.195312 25.679688 L 159.195312 42 L 156.191406 42 Z M 156.191406 25.679688 "/>
<path style=" stroke:none;fill-rule:nonzero;fill:rgb(21.960784%,20%,21.176471%);fill-opacity:1;" d="M 162.171875 25.679688 L 165.175781 25.679688 L 165.175781 42 L 162.171875 42 Z M 162.171875 25.679688 "/>
</g>
</svg>
