<svg xmlns="http://www.w3.org/2000/svg" xmlns:xlink="http://www.w3.org/1999/xlink" width="400" zoomAndPan="magnify" viewBox="0 0 300 299.999988" height="400" preserveAspectRatio="xMidYMid meet" version="1.0"><defs><clipPath id="502a75765b"><path d="M 0 150 C 0 232.84375 67.15625 300 150 300 C 232.84375 300 300 232.84375 300 150 C 300 67.15625 232.84375 0 150 0 C 67.15625 0 0 67.15625 0 150 Z M 0 150 " clip-rule="nonzero"/></clipPath><clipPath id="27024c0397"><path d="M 45 47 L 255 47 L 255 253 L 45 253 Z M 45 47 " clip-rule="nonzero"/></clipPath><clipPath id="71e25efba8"><path d="M 0 150 C 0 232.84375 67.15625 300 150 300 C 232.84375 300 300 232.84375 300 150 C 300 67.15625 232.84375 0 150 0 C 67.15625 0 0 67.15625 0 150 Z M 0 150 " clip-rule="nonzero"/></clipPath><clipPath id="a9e9ee7f5e"><path d="M 235.144531 95.339844 L 256.179688 95.339844 L 256.179688 116.378906 L 235.144531 116.378906 Z M 235.144531 95.339844 " clip-rule="nonzero"/></clipPath><clipPath id="36d7c582ba"><path d="M 245.660156 95.339844 C 239.851562 95.339844 235.144531 100.050781 235.144531 105.859375 C 235.144531 111.667969 239.851562 116.378906 245.660156 116.378906 C 251.472656 116.378906 256.179688 111.667969 256.179688 105.859375 C 256.179688 100.050781 251.472656 95.339844 245.660156 95.339844 Z M 245.660156 95.339844 " clip-rule="nonzero"/></clipPath><clipPath id="473362579a"><path d="M 0.144531 0.339844 L 21.179688 0.339844 L 21.179688 21.378906 L 0.144531 21.378906 Z M 0.144531 0.339844 " clip-rule="nonzero"/></clipPath><clipPath id="1e5352a88a"><path d="M 10.660156 0.339844 C 4.851562 0.339844 0.144531 5.050781 0.144531 10.859375 C 0.144531 16.667969 4.851562 21.378906 10.660156 21.378906 C 16.472656 21.378906 21.179688 16.667969 21.179688 10.859375 C 21.179688 5.050781 16.472656 0.339844 10.660156 0.339844 Z M 10.660156 0.339844 " clip-rule="nonzero"/></clipPath><clipPath id="63a41d1691"><rect x="0" width="22" y="0" height="22"/></clipPath></defs><g clip-path="url(#502a75765b)"><path fill="#fd4817" d="M 60 0 L 240 0 C 241.964844 0 243.925781 0.0976562 245.882812 0.289062 C 247.835938 0.480469 249.777344 0.769531 251.707031 1.152344 C 253.632812 1.535156 255.535156 2.011719 257.417969 2.582031 C 259.296875 3.152344 261.144531 3.816406 262.960938 4.566406 C 264.777344 5.320312 266.550781 6.160156 268.285156 7.085938 C 270.015625 8.011719 271.699219 9.019531 273.335938 10.113281 C 274.96875 11.203125 276.542969 12.371094 278.0625 13.621094 C 279.582031 14.867188 281.035156 16.183594 282.425781 17.574219 C 283.816406 18.964844 285.132812 20.417969 286.378906 21.9375 C 287.628906 23.457031 288.796875 25.03125 289.886719 26.664062 C 290.980469 28.300781 291.988281 29.984375 292.914062 31.714844 C 293.839844 33.449219 294.679688 35.222656 295.433594 37.039062 C 296.183594 38.855469 296.847656 40.703125 297.417969 42.582031 C 297.988281 44.464844 298.464844 46.367188 298.847656 48.292969 C 299.230469 50.222656 299.519531 52.164062 299.710938 54.117188 C 299.902344 56.074219 300 58.035156 300 60 L 300 240 C 300 241.964844 299.902344 243.925781 299.710938 245.882812 C 299.519531 247.835938 299.230469 249.777344 298.847656 251.707031 C 298.464844 253.632812 297.988281 255.535156 297.417969 257.417969 C 296.847656 259.296875 296.183594 261.144531 295.433594 262.960938 C 294.679688 264.777344 293.839844 266.550781 292.914062 268.285156 C 291.988281 270.015625 290.980469 271.699219 289.886719 273.335938 C 288.796875 274.96875 287.628906 276.542969 286.378906 278.0625 C 285.132812 279.582031 283.816406 281.035156 282.425781 282.425781 C 281.035156 283.816406 279.582031 285.132812 278.0625 286.378906 C 276.542969 287.628906 274.96875 288.796875 273.335938 289.886719 C 271.699219 290.980469 270.015625 291.988281 268.285156 292.914062 C 266.550781 293.839844 264.777344 294.679688 262.960938 295.433594 C 261.144531 296.183594 259.296875 296.847656 257.417969 297.417969 C 255.535156 297.988281 253.632812 298.464844 251.707031 298.847656 C 249.777344 299.230469 247.835938 299.519531 245.882812 299.710938 C 243.925781 299.902344 241.964844 300 240 300 L 60 300 C 58.035156 300 56.074219 299.902344 54.117188 299.710938 C 52.164062 299.519531 50.222656 299.230469 48.292969 298.847656 C 46.367188 298.464844 44.464844 297.988281 42.582031 297.417969 C 40.703125 296.847656 38.855469 296.183594 37.039062 295.433594 C 35.222656 294.679688 33.449219 293.839844 31.714844 292.914062 C 29.984375 291.988281 28.300781 290.980469 26.664062 289.886719 C 25.03125 288.796875 23.457031 287.628906 21.9375 286.378906 C 20.417969 285.132812 18.964844 283.816406 17.574219 282.425781 C 16.183594 281.035156 14.867188 279.582031 13.621094 278.0625 C 12.371094 276.542969 11.203125 274.96875 10.113281 273.335938 C 9.019531 271.699219 8.011719 270.015625 7.085938 268.285156 C 6.160156 266.550781 5.320312 264.777344 4.566406 262.960938 C 3.816406 261.144531 3.152344 259.296875 2.582031 257.417969 C 2.011719 255.535156 1.535156 253.632812 1.152344 251.707031 C 0.769531 249.777344 0.480469 247.835938 0.289062 245.882812 C 0.0976562 243.925781 0 241.964844 0 240 L 0 60 C 0 58.035156 0.0976562 56.074219 0.289062 54.117188 C 0.480469 52.164062 0.769531 50.222656 1.152344 48.292969 C 1.535156 46.367188 2.011719 44.464844 2.582031 42.582031 C 3.152344 40.703125 3.816406 38.855469 4.566406 37.039062 C 5.320312 35.222656 6.160156 33.449219 7.085938 31.714844 C 8.011719 29.984375 9.019531 28.300781 10.113281 26.664062 C 11.203125 25.03125 12.371094 23.457031 13.621094 21.9375 C 14.867188 20.417969 16.183594 18.964844 17.574219 17.574219 C 18.964844 16.183594 20.417969 14.867188 21.9375 13.621094 C 23.457031 12.371094 25.03125 11.203125 26.664062 10.113281 C 28.300781 9.019531 29.984375 8.011719 31.714844 7.085938 C 33.449219 6.160156 35.222656 5.320312 37.039062 4.566406 C 38.855469 3.816406 40.703125 3.152344 42.582031 2.582031 C 44.464844 2.011719 46.367188 1.535156 48.292969 1.152344 C 50.222656 0.769531 52.164062 0.480469 54.117188 0.289062 C 56.074219 0.0976562 58.035156 0 60 0 Z M 60 0 " fill-opacity="1" fill-rule="nonzero"/></g><g clip-path="url(#27024c0397)"><g clip-path="url(#71e25efba8)"><path fill="#ffffff" d="M 128.875 211.234375 L 107.148438 211.234375 C 95.171875 211.234375 85.421875 201.492188 85.421875 189.503906 C 85.421875 177.515625 95.171875 167.777344 107.148438 167.777344 L 128.875 167.777344 Z M 189.457031 147.726562 C 172.261719 157.246094 153.691406 163.84375 134.152344 167.359375 L 134.152344 211.648438 C 153.691406 215.164062 172.261719 221.765625 189.457031 231.28125 Z M 200.082031 242.84375 C 203.027344 242.84375 205.433594 240.445312 205.433594 237.492188 L 205.433594 141.515625 C 205.433594 138.570312 203.035156 136.164062 200.082031 136.164062 C 197.128906 136.164062 194.730469 138.5625 194.730469 141.515625 L 194.730469 237.492188 C 194.730469 240.4375 197.128906 242.84375 200.082031 242.84375 Z M 123.523438 252.71875 C 126.484375 252.71875 128.875 250.320312 128.875 247.375 L 128.875 216.511719 L 118.1875 216.511719 L 118.1875 247.375 C 118.1875 250.320312 120.589844 252.71875 123.527344 252.71875 Z M 210.714844 172.097656 L 210.714844 206.914062 C 219.179688 205.636719 225.683594 198.316406 225.683594 189.503906 C 225.683594 180.691406 219.179688 173.375 210.714844 172.097656 Z M 252.359375 186.210938 L 239.183594 186.210938 C 237.726562 186.210938 236.542969 187.390625 236.542969 188.851562 C 236.542969 190.308594 237.726562 191.488281 239.183594 191.488281 L 252.359375 191.488281 C 253.816406 191.488281 255 190.308594 255 188.851562 C 255 187.390625 253.816406 186.210938 252.359375 186.210938 Z M 245.429688 213.371094 C 245.851562 213.613281 246.300781 213.726562 246.75 213.726562 C 247.660156 213.726562 248.550781 213.253906 249.035156 212.410156 C 249.769531 211.152344 249.335938 209.539062 248.074219 208.804688 L 236.683594 202.207031 C 235.421875 201.480469 233.808594 201.90625 233.074219 203.164062 C 232.34375 204.433594 232.777344 206.046875 234.035156 206.773438 Z M 228.496094 228.859375 C 228.984375 229.703125 229.871094 230.179688 230.785156 230.179688 C 231.234375 230.179688 231.683594 230.0625 232.097656 229.824219 C 233.363281 229.09375 233.796875 227.484375 233.0625 226.21875 L 226.480469 214.804688 C 225.75 213.539062 224.136719 213.109375 222.875 213.839844 C 221.609375 214.566406 221.179688 216.179688 221.910156 217.441406 L 228.492188 228.851562 Z M 248.375 165.472656 C 247.644531 164.214844 246.03125 163.78125 244.769531 164.507812 L 233.375 171.089844 C 232.109375 171.820312 231.679688 173.429688 232.410156 174.695312 C 232.902344 175.542969 233.785156 176.011719 234.695312 176.011719 C 235.140625 176.011719 235.597656 175.894531 236.011719 175.660156 L 247.402344 169.078125 C 248.671875 168.347656 249.097656 166.734375 248.371094 165.472656 Z M 223.054688 164.867188 C 223.96875 164.867188 224.855469 164.394531 225.34375 163.546875 L 231.925781 152.136719 C 232.648438 150.871094 232.21875 149.257812 230.957031 148.53125 C 229.691406 147.804688 228.078125 148.230469 227.351562 149.496094 L 220.769531 160.90625 C 220.042969 162.175781 220.476562 163.789062 221.734375 164.515625 C 222.148438 164.753906 222.605469 164.867188 223.050781 164.867188 Z M 193.714844 73.90625 L 170.820312 51.011719 L 170.820312 68.820312 C 170.820312 71.621094 173.101562 73.90625 175.90625 73.90625 Z M 134.152344 229.265625 L 173.597656 229.265625 C 161.046875 223.660156 147.851562 219.558594 134.152344 217.019531 Z M 50.089844 229.265625 L 112.90625 229.265625 L 112.90625 216.511719 L 67.648438 216.511719 C 61.9375 216.511719 57.28125 211.855469 57.28125 206.136719 L 57.28125 65.308594 L 50.089844 65.308594 C 47.285156 65.308594 45 67.597656 45 70.398438 L 45 224.179688 C 45 226.980469 47.285156 229.265625 50.089844 229.265625 Z M 197.449219 131.21875 C 192.859375 132.394531 189.457031 136.566406 189.457031 141.523438 L 189.457031 141.671875 C 171.496094 152.003906 151.949219 159.007812 131.308594 162.503906 L 107.148438 162.503906 C 92.257812 162.503906 80.140625 174.617188 80.140625 189.511719 C 80.140625 198.40625 84.46875 206.320312 91.128906 211.242188 L 67.644531 211.242188 C 64.835938 211.242188 62.550781 208.960938 62.550781 206.148438 L 62.550781 52.367188 C 62.550781 49.558594 64.828125 47.273438 67.644531 47.273438 L 165.535156 47.273438 L 165.535156 68.8125 C 165.535156 74.53125 170.183594 79.183594 175.902344 79.183594 L 197.441406 79.183594 L 197.441406 131.21875 Z M 89.191406 76.546875 C 89.191406 78.007812 90.371094 79.1875 91.824219 79.1875 L 130.054688 79.1875 C 131.515625 79.1875 132.695312 78.007812 132.695312 76.546875 C 132.695312 75.089844 131.515625 73.90625 130.054688 73.90625 L 91.824219 73.90625 C 90.371094 73.90625 89.191406 75.089844 89.191406 76.546875 Z M 89.191406 94.121094 C 89.191406 95.578125 90.371094 96.761719 91.824219 96.761719 L 143.0625 96.761719 C 144.523438 96.761719 145.703125 95.578125 145.703125 94.121094 C 145.703125 92.664062 144.523438 91.480469 143.0625 91.480469 L 91.824219 91.480469 C 90.371094 91.480469 89.191406 92.664062 89.191406 94.121094 Z M 89.191406 111.679688 C 89.191406 113.128906 90.371094 114.316406 91.824219 114.316406 L 168.175781 114.316406 C 169.632812 114.316406 170.8125 113.128906 170.8125 111.679688 C 170.8125 110.226562 169.632812 109.039062 168.175781 109.039062 L 91.824219 109.039062 C 90.371094 109.039062 89.191406 110.21875 89.191406 111.679688 Z M 173.351562 129.253906 C 173.351562 127.792969 172.171875 126.613281 170.710938 126.613281 L 91.824219 126.613281 C 90.371094 126.613281 89.191406 127.792969 89.191406 129.253906 C 89.191406 130.710938 90.371094 131.890625 91.824219 131.890625 L 170.710938 131.890625 C 172.171875 131.890625 173.351562 130.710938 173.351562 129.253906 Z M 173.351562 129.253906 " fill-opacity="1" fill-rule="nonzero"/></g></g><g clip-path="url(#a9e9ee7f5e)"><g clip-path="url(#36d7c582ba)"><g transform="matrix(1, 0, 0, 1, 235, 95)"><g clip-path="url(#63a41d1691)"><g clip-path="url(#473362579a)"><g clip-path="url(#1e5352a88a)"><path fill="#fd4817" d="M 0.144531 0.339844 L 21.179688 0.339844 L 21.179688 21.378906 L 0.144531 21.378906 Z M 0.144531 0.339844 " fill-opacity="1" fill-rule="nonzero"/></g></g></g></g></g></g></svg>