<svg xmlns="http://www.w3.org/2000/svg" xmlns:xlink="http://www.w3.org/1999/xlink" width="400" zoomAndPan="magnify" viewBox="0 0 300 299.999988" height="400" preserveAspectRatio="xMidYMid meet" version="1.0"><path fill="#fd4817" d="M 150 0 C 67.332031 0 0 67.332031 0 150 C 0 232.667969 67.332031 300 150 300 C 233 300 300 232.667969 300 150 C 300 67.332031 233 0 150 0 Z M 217 99.332031 L 181.667969 99.332031 L 181.667969 64 Z M 221 237 C 221 238.667969 219.667969 240 218 240 L 82 240 C 80.332031 240 79 238.667969 79 237 L 79 63 C 79 61.332031 80.332031 60 82 60 L 166.667969 60 L 166.667969 111.667969 C 166.667969 113.332031 168 114.667969 169.667969 114.667969 L 221.332031 114.667969 L 221.332031 237 Z M 144.332031 119.667969 C 144.332031 119.667969 120 143.667969 119.332031 144.667969 C 116.332031 147.667969 116.332031 153 119.332031 156 C 122.667969 159 127.667969 159 130.667969 156 C 131.667969 155.332031 142 144.667969 142 144.667969 L 142 202 C 142 206.667969 145.667969 210 150 210 C 154.667969 210 158 206.332031 158 202 L 158 144.667969 C 158 144.667969 169 155.667969 169.332031 156 C 172.667969 159 177.667969 159 180.667969 156 C 184 152.667969 184 147.667969 180.667969 144.667969 C 180.332031 144.332031 155.667969 119.667969 155.667969 119.667969 C 152.667969 116.332031 147.332031 116.332031 144.332031 119.667969 Z M 144.332031 119.667969 " fill-opacity="1" fill-rule="nonzero"/></svg>